<svg width="295" height="258" viewBox="0 0 295 258" fill="none" xmlns="http://www.w3.org/2000/svg">
<mask id="mask0_259_2202" style="mask-type:luminance" maskUnits="userSpaceOnUse" x="0" y="0" width="295" height="258">
<path d="M294.227 0.630859H0.830566V257.417H294.227V0.630859Z" fill="white"/>
</mask>
<g mask="url(#mask0_259_2202)">
<path d="M147.528 257.417C228.549 257.417 294.227 255.575 294.227 253.302C294.227 251.029 228.549 249.187 147.528 249.187C66.5095 249.187 0.830566 251.029 0.830566 253.302C0.830566 255.575 66.5095 257.417 147.528 257.417Z" fill="#F5F8FF"/>
<path d="M185.706 0.630859H51.1233C49.1242 0.630859 47.5034 2.41064 47.5034 4.60576V101.883C47.5034 104.079 49.1242 105.858 51.1233 105.858H185.706C187.705 105.858 189.326 104.079 189.326 101.883V4.60576C189.326 2.41064 187.705 0.630859 185.706 0.630859Z" fill="url(#paint0_linear_259_2202)"/>
<path d="M182.687 69.167H157.611C156.681 69.167 155.927 69.995 155.927 71.0164V100.899C155.927 101.92 156.681 102.748 157.611 102.748H182.687C183.617 102.748 184.371 101.92 184.371 100.899V71.0164C184.371 69.995 183.617 69.167 182.687 69.167Z" fill="#FEBB94"/>
<path d="M89.6328 68.8523H53.3629C52.5753 68.8523 51.9368 69.5534 51.9368 70.4183V101.182C51.9368 102.047 52.5753 102.748 53.3629 102.748H89.6328C90.4204 102.748 91.0589 102.047 91.0589 101.182V70.4183C91.0589 69.5534 90.4204 68.8523 89.6328 68.8523Z" fill="white"/>
<path d="M151.437 68.8523H95.7265C94.7574 68.8523 93.9717 69.7151 93.9717 70.7792V100.821C93.9717 101.885 94.7574 102.748 95.7265 102.748H151.437C152.406 102.748 153.192 101.885 153.192 100.821V70.7792C153.192 69.7151 152.406 68.8523 151.437 68.8523Z" fill="white"/>
<path d="M182.12 14.3745H131.673C130.43 14.3745 129.422 15.4813 129.422 16.8466V63.3566C129.422 64.7217 130.43 65.8285 131.673 65.8285H182.12C183.363 65.8285 184.371 64.7217 184.371 63.3566V16.8466C184.371 15.4813 183.363 14.3745 182.12 14.3745Z" fill="#1C85E8"/>
<path d="M119.484 119.059C122.567 115.318 121.693 114.317 123.139 112.108C124.559 109.955 124.246 103.613 125.601 104.822C126.956 106.03 126.964 108.3 126.964 108.3C128.453 106.541 130.229 103.052 132.828 103.28C135.427 103.508 135.461 104.432 136.604 106.084C139.633 110.526 133.687 114.454 132.453 116.219C131.667 117.322 127.045 120.102 126.444 120.817L123.868 123.364L119.484 119.059Z" fill="#FFCCB3"/>
<path d="M129.422 109.226L133.821 103.834" stroke="#EF6A77" stroke-width="1.07832" stroke-linecap="round"/>
<path d="M131.205 110.753L135.786 105.858" stroke="#EF6A77" stroke-width="1.07832" stroke-linecap="round"/>
<path d="M133.342 112.483L136.003 109.49" stroke="#EF6A77" stroke-width="1.07832" stroke-linecap="round"/>
<path d="M73.3001 149.324L47.5034 251.011H52.7584L82.5756 149.324H73.3001Z" fill="#D1E8F7"/>
<path d="M73.3002 149.324L71.4065 156.79L81.2904 153.708L82.5757 149.324H73.3002Z" fill="#5CA4E6"/>
<path d="M256.603 230.29L242.628 250.69C242.3 251.171 241.81 251.488 241.269 251.572C240.726 251.656 240.175 251.501 239.739 251.139L238.441 250.068L254.897 226.044L256.195 227.115C256.634 227.477 256.92 228.014 256.998 228.61C257.075 229.205 256.934 229.81 256.603 230.29Z" fill="#5661AE"/>
<path d="M243.422 218.345L248.459 222.841L243.342 231.514L237.66 226.753L243.422 218.345Z" fill="#BC775C"/>
<path d="M245.658 220.535L239.384 228.052L237.856 226.729L243.734 218.8L245.658 220.535Z" fill="#93523E" stroke="#93523E"/>
<path d="M247.784 222.284C247.784 222.284 246.37 227.747 241.708 230.546L237.498 248.62C237.633 249.658 238.689 250.324 239.389 250.571C239.543 250.624 239.709 250.624 239.863 250.569C240.018 250.514 240.15 250.409 240.247 250.266L255.186 228.459C255.434 228.095 255.545 227.639 255.492 227.187C255.437 226.735 255.225 226.325 254.897 226.044C253.593 224.921 251.589 223.226 250.723 222.645C249.38 221.746 248.426 221.538 247.784 222.284Z" fill="#1C85E8"/>
<path d="M240.734 234.294L243.13 233.73C243.218 233.709 243.309 233.712 243.395 233.739C243.48 233.766 243.558 233.816 243.624 233.884C243.687 233.952 243.737 234.037 243.764 234.13C243.792 234.224 243.797 234.324 243.781 234.42C243.762 234.539 243.712 234.648 243.635 234.735C243.558 234.821 243.461 234.88 243.354 234.904L240.412 235.555L240.734 234.294Z" fill="white"/>
<path d="M240.169 237.158L242.551 236.587C242.639 236.566 242.73 236.57 242.816 236.597C242.901 236.624 242.981 236.674 243.045 236.742C243.111 236.81 243.158 236.895 243.185 236.988C243.213 237.081 243.218 237.181 243.205 237.278C243.185 237.396 243.133 237.506 243.056 237.592C242.981 237.678 242.882 237.737 242.775 237.761L239.874 238.422L240.169 237.158Z" fill="white"/>
<path d="M239.441 240.276L241.798 239.698C241.887 239.677 241.978 239.681 242.063 239.708C242.149 239.735 242.229 239.784 242.292 239.853C242.355 239.921 242.405 240.005 242.433 240.099C242.46 240.192 242.466 240.292 242.449 240.388C242.43 240.507 242.38 240.617 242.303 240.703C242.226 240.789 242.129 240.848 242.022 240.872L239.155 241.507L239.441 240.276Z" fill="white"/>
<path d="M195.529 194.571L235.413 229.856L244.511 218.213L209.639 182.287L195.529 194.571Z" fill="#1F2D49"/>
<path d="M216.922 189.789V213.496L235.414 229.856L238.068 211.574L216.922 189.789Z" fill="#0D1B33"/>
<path d="M199.069 129.701L192.513 187.108H210.843L226.765 129.989L199.069 129.701Z" fill="#1F2D49"/>
<path d="M214.808 172.886L217.886 144.407H225.455L214.808 172.886Z" fill="#0D1B33"/>
<path d="M231.262 251.995H208.014C207.467 251.995 206.941 251.756 206.554 251.331C206.167 250.906 205.949 250.329 205.949 249.728V247.945H233.326V249.728C233.326 250.329 233.109 250.906 232.723 251.331C232.334 251.756 231.81 251.995 231.262 251.995Z" fill="#5661AE"/>
<path d="M232.031 233.246L231.788 240.371L222.398 241.093L222.449 233.246H232.031Z" fill="#BC775C"/>
<path d="M231.783 236.527L222.539 235.538L222.583 233.403L231.887 233.794L231.783 236.527Z" fill="#93523E" stroke="#93523E"/>
<path d="M231.788 239.443C231.788 239.443 226.961 241.485 222.121 239.078L206.437 246.248C205.762 246.989 205.912 248.315 206.154 249.08C206.207 249.247 206.308 249.392 206.44 249.494C206.572 249.596 206.73 249.651 206.891 249.65H231.741C232.158 249.65 232.554 249.472 232.852 249.153C233.147 248.834 233.318 248.401 233.326 247.945C233.36 246.123 233.387 243.348 233.291 242.237C233.139 240.52 232.714 239.557 231.788 239.443Z" fill="#1C85E8"/>
<path d="M218.808 240.476L220.659 242.239C220.726 242.303 220.778 242.385 220.811 242.476C220.843 242.568 220.854 242.667 220.843 242.765C220.832 242.862 220.799 242.955 220.748 243.036C220.696 243.116 220.628 243.181 220.548 243.226C220.45 243.281 220.34 243.302 220.231 243.286C220.122 243.271 220.02 243.22 219.938 243.14L217.696 240.951L218.808 240.476Z" fill="white"/>
<path d="M216.383 241.701L218.232 243.449C218.299 243.514 218.351 243.595 218.384 243.687C218.415 243.779 218.427 243.878 218.416 243.975C218.405 244.073 218.372 244.166 218.321 244.246C218.269 244.327 218.201 244.392 218.121 244.436C218.023 244.491 217.913 244.512 217.804 244.497C217.695 244.481 217.593 244.43 217.511 244.35L215.287 242.202L216.383 241.701Z" fill="white"/>
<path d="M213.678 242.938L215.515 244.658C215.582 244.722 215.635 244.804 215.667 244.895C215.699 244.987 215.71 245.086 215.699 245.184C215.688 245.281 215.655 245.374 215.604 245.455C215.553 245.535 215.484 245.6 215.404 245.645C215.306 245.7 215.196 245.721 215.087 245.705C214.978 245.69 214.876 245.639 214.794 245.559L212.61 243.426L213.678 242.938Z" fill="white"/>
<path d="M237.886 129.989C237.735 132.9 237.735 135.818 237.886 138.729C238.496 148.14 236.547 175.62 236.563 179.235C236.577 182.852 234.41 233.782 234.41 233.782H221.231C221.231 233.782 217.862 190.012 217.784 185.003C217.706 179.994 216.922 130.195 216.922 130.195L237.886 129.989Z" fill="#1F2D49"/>
<path d="M198.672 133.177L237.886 138.729V129.989L198.875 131.397L198.672 133.177Z" fill="#0D1B33"/>
<path d="M201.678 197.172C206.74 197.172 210.843 192.666 210.843 187.108C210.843 181.55 206.74 177.044 201.678 177.044C196.616 177.044 192.513 181.55 192.513 187.108C192.513 192.666 196.616 197.172 201.678 197.172Z" fill="#1F2D49"/>
<path d="M269.977 144.407H29.3623V149.324H269.977V144.407Z" fill="url(#paint1_linear_259_2202)"/>
<path fill-rule="evenodd" clip-rule="evenodd" d="M144.823 245.835C141.268 244.456 137.603 243.034 134.225 243.297C134.149 243.303 134.075 243.327 134.008 243.367C133.941 243.407 133.883 243.463 133.837 243.53C133.792 243.597 133.76 243.675 133.745 243.757C133.729 243.839 133.73 243.924 133.748 244.006L135.162 250.568C135.191 250.704 135.264 250.822 135.367 250.903C135.47 250.984 135.596 251.021 135.722 251.008L158.69 248.573C160.384 248.393 161.201 247.292 161.322 245.774C161.326 245.722 161.315 245.67 161.292 245.624C161.269 245.578 161.235 245.541 161.193 245.516C161.151 245.491 161.104 245.48 161.056 245.484C161.009 245.488 160.963 245.507 160.926 245.539C158.391 247.626 155.213 248.541 152.072 248.089C149.805 247.768 147.342 246.812 144.823 245.835Z" fill="#5661AE"/>
<path fill-rule="evenodd" clip-rule="evenodd" d="M132.398 226.9C132.398 226.9 134.768 237.213 134.834 238.32C134.84 238.935 134.804 239.549 134.728 240.158C134.622 241.253 134.504 242.474 134.681 243.274C137.932 243.163 141.427 244.519 144.823 245.837C147.341 246.813 149.804 247.769 152.072 248.089C155.061 248.519 158.09 247.713 160.567 245.825C160.464 243.942 158.837 242.354 155.837 242.386C150.459 242.443 147.482 242.338 144.516 238.361C142.407 235.535 141.39 223.615 141.39 223.615L132.398 226.9Z" fill="#FFCCB3"/>
<path fill-rule="evenodd" clip-rule="evenodd" d="M143.829 236.714C142.838 236.969 138.896 237.963 135.05 238.65C134.302 238.784 134.065 240.479 134.63 241.322C135.02 241.944 135.362 242.601 135.656 243.284C136.996 243.371 138.324 243.61 139.619 243.997C138.936 242.389 139.667 241.337 141.075 240.957C142.188 240.657 144.873 240.606 146.262 240.6C146.339 240.6 146.413 240.575 146.478 240.53C146.542 240.484 146.593 240.42 146.624 240.343C146.656 240.267 146.667 240.182 146.657 240.099C146.646 240.016 146.614 239.938 146.564 239.875L144.225 236.857C144.178 236.796 144.115 236.75 144.045 236.725C143.976 236.699 143.901 236.696 143.829 236.714Z" fill="white"/>
<path fill-rule="evenodd" clip-rule="evenodd" d="M157.897 247.359C155.437 248.405 153.717 248.187 153.717 248.187L153.192 242.222L157.425 241.989L157.897 247.359Z" fill="white"/>
<path d="M130.161 185.291C134.241 183.948 136.556 179.226 135.332 174.747C134.109 170.267 129.809 167.725 125.73 169.068C121.65 170.412 119.335 175.133 120.558 179.613C121.782 184.093 126.081 186.635 130.161 185.291Z" fill="#FFCCB3"/>
<path d="M130.227 169.089L117.443 164.284L111.492 181.887L128.031 185.049L130.227 169.089Z" fill="#FFCCB3"/>
<path d="M135.59 176.055L142.08 229.312L133.661 232.51L120.934 181.944L135.59 176.055Z" fill="#FFCCB3"/>
<path fill-rule="evenodd" clip-rule="evenodd" d="M108.931 249.528C105.572 247.645 102.111 245.705 98.7305 245.477C98.6541 245.472 98.5777 245.485 98.5066 245.515C98.4355 245.545 98.371 245.592 98.3178 245.652C98.2648 245.712 98.224 245.784 98.1989 245.863C98.1738 245.942 98.1645 246.026 98.1719 246.11L98.7859 252.82C98.7986 252.958 98.8562 253.087 98.9485 253.182C99.0406 253.277 99.1611 253.332 99.2877 253.337L122.348 254.249C124.048 254.317 124.991 253.344 125.293 251.857C125.303 251.805 125.299 251.752 125.281 251.704C125.264 251.655 125.234 251.613 125.196 251.582C125.157 251.551 125.112 251.534 125.064 251.531C125.017 251.528 124.969 251.54 124.928 251.566C122.165 253.268 118.906 253.715 115.846 252.811C113.637 252.165 111.31 250.861 108.931 249.528Z" fill="#5661AE"/>
<path fill-rule="evenodd" clip-rule="evenodd" d="M98.8887 228.958C98.8887 228.958 99.9989 239.524 99.9319 240.631C99.8635 241.241 99.7546 241.845 99.6058 242.438C99.3692 243.509 99.1059 244.701 99.1853 245.52C102.421 245.881 105.723 247.731 108.931 249.529C111.31 250.862 113.636 252.166 115.846 252.812C118.757 253.671 121.856 253.31 124.538 251.798C124.662 249.916 123.241 248.107 120.262 247.704C114.925 246.982 111.987 246.446 109.524 242.074C107.773 238.968 108.196 227.004 108.196 227.004L98.8887 228.958Z" fill="#FCBA9F"/>
<path fill-rule="evenodd" clip-rule="evenodd" d="M109.042 240.342C108.029 240.451 104.001 240.866 100.106 240.99C99.3487 241.014 98.9103 242.66 99.3694 243.577C99.6803 244.251 99.9417 244.951 100.15 245.671C101.468 245.951 102.756 246.381 103.993 246.952C103.509 245.259 104.36 244.322 105.802 244.149C106.941 244.013 109.608 244.351 110.987 244.547C111.062 244.557 111.139 244.544 111.208 244.508C111.277 244.473 111.336 244.416 111.376 244.345C111.417 244.274 111.438 244.192 111.438 244.108C111.437 244.024 111.414 243.942 111.373 243.872L109.416 240.542C109.377 240.474 109.321 240.419 109.255 240.384C109.188 240.349 109.115 240.335 109.042 240.342Z" fill="white"/>
<path fill-rule="evenodd" clip-rule="evenodd" d="M121.707 252.931C119.143 253.612 117.464 253.148 117.464 253.148L117.661 247.159L121.884 247.54L121.707 252.931Z" fill="white"/>
<path d="M101.669 187.389C105.874 186.648 108.736 182.303 108.061 177.685C107.386 173.067 103.43 169.925 99.2245 170.666C95.0191 171.407 92.1571 175.751 92.832 180.369C93.5069 184.987 97.4631 188.13 101.669 187.389Z" stroke="#5CA4E6" stroke-width="1.0969" stroke-miterlimit="10"/>
<path d="M108.159 179.02L108.196 232.751L99.4668 234.703L92.9243 182.735L108.159 179.02Z" fill="#FCBA9F"/>
<path d="M85.3076 159.402C85.3076 159.402 82.9606 172.014 86.0362 177.284C89.9296 183.955 94.6914 184.977 98.2103 185.049L117.223 183.248C117.223 183.248 117.097 171.245 124.139 166.76C124.139 166.76 95.2791 155.064 85.3076 159.402Z" fill="#5661AE"/>
<path d="M77.9887 95.0567L76.4784 103.526L67.7378 102.875L69.4124 93.8721L77.9887 95.0567Z" fill="#FFCCB3"/>
<path d="M77.9007 95.5492L77.1671 99.6637C77.1671 99.6637 75.1584 97.7837 74.7705 94.8496L77.9007 95.5492Z" fill="#FCBA9F"/>
<path d="M65.0432 105.283C65.0432 105.283 67.034 99.5793 68.222 100.272C71.0456 101.918 75.17 101.613 76.9959 100.623C78.0902 100.031 78.1318 105.283 78.1318 105.283H65.0432Z" fill="#FEBB94"/>
<path d="M65.0431 105.283L56.6554 106.517C56.4252 106.551 56.2162 106.682 56.0726 106.883C55.9289 107.083 55.8622 107.337 55.8865 107.591L61.7428 168.597L91.7935 165.358L88.0743 107.305L78.1317 105.283H65.0431Z" fill="#FEBB94"/>
<path d="M86.4277 122.666L84.0837 117.985L84.6605 122.666H86.4277Z" fill="#FF967C"/>
<path d="M87.553 107.199C90.7218 107.733 93.3781 110.052 94.2656 112.077L102.105 131.687L121.354 114.782L126.826 121.111L109.523 144.586C106.043 149.618 100.024 151.689 95.9244 145.127L89.3745 133.83L87.553 107.199Z" fill="#FEBB94"/>
<path d="M102.105 131.687L104.295 136.414L105.962 128.299L102.105 131.687Z" fill="#FF967C"/>
<path d="M56.7197 106.507C56.7197 106.507 54.4562 106.463 52.5534 110.12C50.6502 113.777 42.9435 135.926 42.9435 135.926C42.9435 135.926 39.4231 144.284 46.5592 144.597H61.4969L56.7197 106.507Z" fill="#FEBB94"/>
<path d="M58.405 122.666L57.7797 119.598L56.2061 122.666H58.405Z" fill="#FF967C"/>
<path d="M97.9223 185.028H65.2993C64.2718 185.028 63.2788 184.621 62.5027 183.881C61.7263 183.142 61.2191 182.12 61.0738 181.004L54.1795 128.016C54.0932 127.351 54.1378 126.674 54.3104 126.029C54.483 125.385 54.7799 124.789 55.1805 124.282C55.5811 123.775 56.0765 123.368 56.6329 123.089C57.1892 122.81 57.7936 122.666 58.405 122.666H91.0282C92.0555 122.666 93.0485 123.073 93.8249 123.812C94.601 124.551 95.1082 125.573 95.2535 126.69L102.148 179.678C102.234 180.342 102.19 181.02 102.017 181.664C101.844 182.308 101.548 182.904 101.147 183.411C100.746 183.919 100.251 184.326 99.6947 184.605C99.1383 184.883 98.5338 185.028 97.9223 185.028Z" fill="#5CA4E6"/>
<path d="M95.7231 185.028H120.707C120.921 185.028 121.132 184.965 121.318 184.847C121.503 184.729 121.657 184.559 121.763 184.354C121.87 184.149 121.925 183.918 121.923 183.682C121.922 183.446 121.864 183.216 121.754 183.013C121.669 182.854 121.555 182.717 121.42 182.609C121.284 182.501 121.129 182.426 120.965 182.387L100.741 177.559L95.7231 185.028Z" fill="#5CA4E6"/>
<path d="M95.7232 185.028H63.1003C62.0728 185.028 61.0797 184.621 60.3036 183.881C59.5273 183.142 59.02 182.12 58.8747 181.004L51.9807 128.016C51.8941 127.351 51.9388 126.674 52.1114 126.029C52.284 125.385 52.5809 124.789 52.9815 124.282C53.382 123.775 53.8775 123.368 54.4338 123.089C54.9902 122.81 55.5945 122.666 56.206 122.666H88.8292C89.8564 122.666 90.8495 123.073 91.6258 123.812C92.4019 124.551 92.9092 125.573 93.0545 126.69L99.9488 179.678C100.035 180.342 99.9907 181.02 99.8181 181.664C99.6452 182.308 99.3486 182.904 98.948 183.411C98.5471 183.919 98.052 184.326 97.4956 184.605C96.9393 184.883 96.3347 185.028 95.7232 185.028Z" fill="url(#paint2_linear_259_2202)"/>
<path d="M228.957 136.33C228.957 136.33 227.195 139.985 226.765 140.404C226.338 140.824 219.257 141.783 217.886 142.322C216.515 142.861 215.86 143.676 215.86 144.407H232.502C232.502 144.407 232.932 143.966 233.244 142.561C233.553 141.157 234.096 140.561 234.096 140.561L228.957 136.33Z" fill="#BC775C"/>
<path d="M205.036 78.7511C206.13 72.8181 203.556 72.971 202.7 72.0276C202.7 72.0276 199.486 69.1178 197.038 71.8303C194.446 74.6993 179.589 96.9866 179.589 96.9866L188.885 106.375L190.632 104.085L195.159 98.1576L200 91.8219L200.601 91.1008L207.132 82.9781C207.132 82.9781 204.417 81.8747 205.036 78.7511Z" fill="#5661AE"/>
<path d="M208.924 79.7623C210.177 75.6542 208.16 71.2083 204.419 69.8323C200.677 68.4564 196.628 70.6712 195.375 74.7793C194.122 78.8877 196.139 83.3334 199.881 84.7093C203.622 86.0855 207.671 83.8704 208.924 79.7623Z" fill="#5661AE"/>
<path d="M200.516 91.0694C200.703 89.8291 201.078 87.3491 201.481 85.0889L203.626 74.1487C203.626 74.1487 197.866 83.4971 195.212 90.0089C193.247 94.8887 190.967 99.862 190.59 104.069L195.116 98.1416L199.957 91.8063L200.516 91.0694Z" fill="#465393"/>
<path d="M170.304 71.8948C168.095 67.4707 169.157 66.7199 168.217 64.2027C167.291 61.7466 168.935 55.6577 167.361 56.4878C165.788 57.3182 165.301 59.5245 165.301 59.5245C164.225 57.4338 163.234 53.5876 160.657 53.1474C158.081 52.7072 157.853 53.5976 156.392 54.9132C152.507 58.4628 157.461 63.797 158.288 65.8283C158.82 67.1016 162.729 70.9836 163.162 71.8319L165.129 74.9658L170.304 71.8948Z" fill="#BC775C"/>
<path d="M162.714 59.7988L159.575 53.4338" stroke="#93523E" stroke-width="1.07832" stroke-linecap="round"/>
<path d="M160.657 60.8294L157.236 54.9019" stroke="#93523E" stroke-width="1.07832" stroke-linecap="round"/>
<path d="M158.214 61.9687L156.258 58.3789" stroke="#93523E" stroke-width="1.07832" stroke-linecap="round"/>
<path d="M163.49 65.4017C163.507 63.1978 164.711 60.531 164.711 60.531" stroke="#93523E" stroke-width="1.07832" stroke-linecap="round"/>
<path d="M188.964 96.8092L170.061 69.1668C169.941 69.0045 169.77 68.8967 169.581 68.8647C169.393 68.8323 169.2 68.878 169.04 68.9924L164.091 72.5871C163.855 72.7621 163.688 73.0266 163.621 73.3297C163.553 73.6327 163.591 73.9527 163.726 74.227L178.927 105.011L188.964 96.8092Z" fill="#5661AE"/>
<path d="M184.371 108.484C187.867 108.484 190.701 105.372 190.701 101.533C190.701 97.6944 187.867 94.5823 184.371 94.5823C180.875 94.5823 178.041 97.6944 178.041 101.533C178.041 105.372 180.875 108.484 184.371 108.484Z" fill="#5661AE"/>
<path d="M210.82 65.7793C210.82 65.7793 201.591 69.0031 199.77 69.8393C197.949 70.6757 197.827 74.0215 197.706 76.3913C197.621 78.0518 199.328 105.318 199.44 121.109C199.464 124.483 198.891 126.623 198.523 128.498C198.156 130.373 198.523 131.394 198.523 131.394L238.068 131.782C238.068 131.782 236.883 76.9157 236.64 74.9643C236.398 73.0125 238.306 71.3317 236.238 70.3494L221.137 65.7793H210.82Z" fill="white"/>
<path d="M205.858 67.5391C205.858 67.5391 207.364 75.1074 208.352 81.1645C209.339 87.2216 209.639 137.365 209.639 137.365C209.639 137.365 198.084 134.898 196.518 131.983C194.953 129.068 197.968 115.97 198.203 104.069C198.438 92.1686 196.156 73.7 198.551 70.4959C198.551 70.4959 199.166 69.8274 205.858 67.5391Z" fill="#5661AE"/>
<path d="M225.279 67.0525C225.279 67.0525 219.796 79.5966 220.131 83.4198C220.467 87.2431 220.486 119.848 220.131 126.655C219.911 130.796 219.337 134.906 218.416 138.928C218.416 138.928 233.373 140.091 239.152 138.105C239.152 138.105 241.898 119.137 240.095 112.361C238.294 105.585 236.919 70.3674 236.919 70.3674L225.279 67.0525Z" fill="#5661AE"/>
<path d="M229.326 83.9098C229.326 83.9098 229.886 106.644 229.77 114.221C229.698 118.943 224.78 120.943 224.766 123.677C224.758 125.295 228.648 123.401 229.698 125.074C230.746 126.746 228.954 131.983 228.954 131.983L238.068 131.782L241.721 112.326L234.027 82.7397L229.326 83.9098Z" fill="#465393"/>
<path d="M211.01 60.712L210.154 71.3068C210.154 71.3068 209.925 72.9525 212.528 73.4732C214.595 73.8864 218.89 71.2197 219.86 70.3411C222.015 68.3885 222.214 67.2069 221.986 66.302C221.66 65.0054 220.594 55.8689 220.594 55.8689L211.01 60.712Z" fill="#BC775C"/>
<path d="M210.448 69.3827L210.975 62.8524L215.569 60.3606L210.448 69.3827Z" fill="#93523E" stroke="#93523E"/>
<path d="M205.903 40.6595C205.903 40.6595 204.143 49.3156 203.909 55.2108C203.672 61.1586 205.608 62.2911 208.007 62.7352C209.9 63.0855 212.844 63.1109 214.696 62.0958C218.071 60.2446 223.614 55.7517 224.339 54.8802C225.464 53.5306 225.386 47.5113 221.096 46.0228C217.976 44.9399 210.021 35.7474 205.903 40.6595Z" fill="#BC775C"/>
<path d="M205.92 41.5826C208.479 42.6843 213.296 41.9604 215.942 42.9034C218.584 43.8489 216.18 44.847 216.295 47.65C216.37 49.4655 216.495 52.9349 217.51 52.8888C218.524 52.8431 219.122 48.903 221.262 49.0532C223.401 49.2064 224.41 50.2096 224.363 51.7121C224.317 53.2119 222.779 54.5188 221.566 55.2126C220.048 56.076 219.421 55.714 219.421 55.714C219.421 55.714 221.13 62.6224 221.388 62.3487C221.388 62.3487 223.231 61.2065 223.564 59.2069C223.564 59.2069 226.009 58.6251 225.469 55.9389C225.469 55.9389 226.991 55.4021 226.269 53.847C226.269 53.847 230.206 50.9401 228.154 47.383C228.154 47.383 230.021 45.3377 227.79 44.4728C227.79 44.4728 230.746 39.7314 226.542 38.7206C226.542 38.7206 226.823 36.4888 224.898 36.5739C224.898 36.5739 224.058 32.7352 219.859 34.2492C219.839 33.4805 219.608 32.7364 219.196 32.1146C218.784 31.4928 218.211 31.022 217.551 30.7644C215.173 29.7127 213.625 31.1601 213.625 31.1601C213.625 31.1601 211.129 28.9247 209.815 32.2021C209.815 32.2021 207.927 31.1425 206.512 32.2684C205.095 33.3906 205.784 35.7432 205.784 35.7432C205.784 35.7432 204.164 35.3263 203.573 36.7994C202.738 38.8722 203.91 39.6276 203.91 39.6276C203.91 39.6276 201.273 43.0509 204.982 46.2935L205.92 41.5826Z" fill="#493212"/>
<path d="M212.361 50.1283C212.5 49.4281 212.275 48.7793 211.857 48.6791C211.439 48.5789 210.988 49.0654 210.849 49.7653C210.709 50.4652 210.935 51.114 211.353 51.2142C211.77 51.3144 212.222 50.8282 212.361 50.1283Z" fill="#080B09"/>
<path d="M206.614 48.7068C206.753 48.0069 206.528 47.3582 206.11 47.258C205.692 47.1578 205.241 47.6439 205.101 48.3442C204.962 49.0441 205.188 49.6929 205.605 49.7931C206.023 49.8933 206.475 49.4071 206.614 48.7068Z" fill="#080B09"/>
<path d="M207.75 50.5657C207.75 50.5657 208.464 52.0751 207.432 52.0981C206.447 52.083 205.873 52.7178 206.867 53.6378" stroke="#93523E" stroke-width="1.07832" stroke-linecap="round"/>
<path d="M207.019 55.0335L207.024 55.0341L207.028 55.0345C207.639 55.0826 208.86 55.1792 209.671 55.2582H209.673C209.696 55.2603 209.719 55.2694 209.739 55.2845C209.758 55.2999 209.773 55.3205 209.782 55.3448C209.791 55.3687 209.794 55.395 209.791 55.4207C209.788 55.4456 209.779 55.4692 209.764 55.4889C209.586 55.7047 209.351 55.9614 209.09 56.1827C208.826 56.4064 208.545 56.5863 208.274 56.6577C208.009 56.7279 207.758 56.6937 207.535 56.4967C207.304 56.2932 207.084 55.9018 206.919 55.2131L206.916 55.2013L206.912 55.1901C206.904 55.1719 206.902 55.1516 206.904 55.1319C206.906 55.1119 206.913 55.0932 206.924 55.0771C206.935 55.0611 206.949 55.0487 206.966 55.0411C206.983 55.0332 207.001 55.0308 207.019 55.0335Z" fill="#93523E" stroke="#93523E"/>
<path d="M214.364 47.8213L214.306 47.9481C214.238 48.141 214.102 48.296 213.93 48.3798C213.757 48.4634 213.562 48.4688 213.386 48.3947L210.391 47.0336C210.244 46.9742 210.122 46.8562 210.05 46.703C209.978 46.5498 209.961 46.3724 210.002 46.2062C210.024 46.103 210.064 46.0058 210.122 45.9213C210.18 45.8366 210.253 45.7666 210.337 45.7155C210.421 45.6643 210.515 45.6331 210.611 45.6247C210.706 45.6159 210.803 45.6295 210.894 45.6649L213.946 46.8995C214.029 46.9282 214.106 46.9755 214.173 47.0378C214.239 47.1005 214.294 47.1771 214.333 47.263C214.372 47.349 214.395 47.4429 214.4 47.5388C214.405 47.6348 214.393 47.7308 214.364 47.8213Z" fill="#080B09"/>
<path d="M204.259 44.7598L207.504 44.5198C207.6 44.5137 207.696 44.5304 207.786 44.5685C207.876 44.6066 207.957 44.6651 208.025 44.7402C208.093 44.8152 208.145 44.9054 208.179 45.0044C208.212 45.1034 208.227 45.2091 208.22 45.3148C208.217 45.487 208.156 45.652 208.047 45.7767C207.939 45.9015 207.792 45.9768 207.635 45.9883L204.412 46.3677C204.225 46.3843 204.038 46.3189 203.894 46.1851C203.75 46.0516 203.66 45.8609 203.644 45.6547L203.621 45.5155C203.617 45.4195 203.629 45.3232 203.659 45.233C203.689 45.1425 203.735 45.0595 203.794 44.989C203.853 44.9185 203.925 44.8619 204.005 44.8225C204.085 44.7831 204.171 44.762 204.259 44.7598Z" fill="#080B09"/>
<path d="M237.216 75.8191C233.142 71.7398 231.94 74.2431 230.762 74.5655C230.762 74.5655 226.839 76.0976 227.699 79.7979C228.609 83.7135 238.388 109.16 238.388 109.16L250.728 105.953L249.609 102.404L247.304 95.0945L244.842 87.2788L244.586 86.3416L241.594 76.0159C241.594 76.0159 239.339 78.007 237.216 75.8191Z" fill="#5661AE"/>
<path d="M239.223 83.7368C242.22 80.9193 242.57 75.9672 240.004 72.6761C237.437 69.3848 232.927 69.0009 229.93 71.8185C226.933 74.636 226.583 79.5882 229.15 82.8792C231.716 86.1705 236.224 86.5544 239.223 83.7368Z" fill="#5661AE"/>
<path d="M238.294 105.585L227.38 138.009C227.322 138.208 227.333 138.424 227.41 138.615C227.487 138.807 227.625 138.96 227.802 139.045L233.233 141.666C233.495 141.788 233.79 141.799 234.057 141.697C234.324 141.595 234.551 141.387 234.686 141.113L250.011 110.403L238.294 105.585Z" fill="#5661AE"/>
<path d="M244.398 114.214C247.894 114.214 250.728 111.102 250.728 107.263C250.728 103.424 247.894 100.312 244.398 100.312C240.902 100.312 238.068 103.424 238.068 107.263C238.068 111.102 240.902 114.214 244.398 114.214Z" fill="#5661AE"/>
<path d="M73.4766 185.028H97.2593C97.2593 187.909 96.2172 190.672 94.3618 192.709C92.5064 194.747 89.9901 195.891 87.3663 195.891H83.3699C80.7461 195.891 78.2295 194.747 76.3744 192.709C74.519 190.672 73.4766 187.909 73.4766 185.028Z" fill="#E7EFFF"/>
<path d="M85.896 195.891H84.8401V248.11H85.896V195.891Z" fill="#5CA4E6"/>
<path d="M84.8401 248.11L70.3435 253.269H100.168L85.896 248.11H84.8401Z" fill="#5CA4E6"/>
<path d="M37.7477 149.324L11.9509 251.011H17.2059L47.0229 149.324H37.7477Z" fill="#E7EFFF"/>
<path d="M37.7478 149.324L35.8538 156.79L45.7377 153.708L47.023 149.324H37.7478Z" fill="#96BAFD"/>
<path d="M257.659 149.324L283.456 251.011H278.201L248.382 149.324H257.659Z" fill="#D1E8F7"/>
<path d="M257.659 149.324L259.107 155.032L249.719 153.881L248.382 149.324H257.659Z" fill="#5CA4E6"/>
<path d="M78.3854 77.1018C78.3854 77.1018 81.8542 83.9748 83.0573 86.8114C84.2605 89.6477 84.6718 92.7077 82.668 94.1161C79.942 96.0327 76.9253 95.6067 73.6743 95.208C70.86 94.8626 67.3336 86.1672 67.7657 84.0323C68.1977 81.8974 73.0918 73.3339 78.3854 77.1018Z" fill="#FFCCB3"/>
<path d="M80.9716 84.9796C81.2244 84.7553 81.1853 84.2421 80.8842 83.8334C80.5832 83.4248 80.1346 83.2749 79.8818 83.4992C79.6293 83.7236 79.6684 84.2367 79.9695 84.6454C80.2703 85.0544 80.7191 85.2039 80.9716 84.9796Z" fill="#080B09"/>
<path d="M77.2351 83.9347L79.8817 81.8679C79.8172 81.7856 79.7375 81.719 79.6479 81.6724C79.5586 81.6261 79.4613 81.6006 79.3623 81.5979C79.2633 81.5952 79.1652 81.6155 79.0737 81.6569C78.9821 81.6987 78.8997 81.7608 78.8316 81.8395L77.0782 83.7915C77.0159 83.8469 77.1416 84.0177 77.2351 83.9347Z" fill="#080B09"/>
<path d="M82.5567 89.2454C82.2013 89.4882 81.7913 89.6165 81.3728 89.6165C80.9543 89.6165 80.5441 89.4882 80.1887 89.2454" stroke="#EF6A77" stroke-miterlimit="10" stroke-linecap="round"/>
<path d="M75.8975 81.2241L81.565 78.0766C81.565 78.0766 79.5097 70.7359 71.9807 69.9691C66.4572 69.4063 61.3232 72.7503 59.3338 77.9743C57.3441 83.1985 59.0454 91.8056 64.0912 93.8721C68.3592 95.6197 68.2219 100.272 68.2219 100.272L74.4714 91.2725C74.4714 91.2725 70.1476 88.9626 71.1845 86.1432C72.59 82.3209 76.1222 86.7396 76.1222 86.7396L73.7322 79.1013L75.8975 81.2241Z" fill="#1F2D49"/>
<path d="M81.8869 84.2395C81.8869 84.2395 82.8322 85.5918 83.4043 85.8528C83.9761 86.1137 83.4641 87.0743 83.0831 87.2078C82.7021 87.3413 81.6696 84.878 81.8869 84.2395Z" fill="#FFCCB3"/>
<path d="M58.5225 91.6135C62.2314 91.6135 65.2379 88.3122 65.2379 84.2395C65.2379 80.1671 62.2314 76.8655 58.5225 76.8655C54.8139 76.8655 51.8071 80.1671 51.8071 84.2395C51.8071 88.3122 54.8139 91.6135 58.5225 91.6135Z" fill="#0D1B33"/>
<path d="M57.7796 91.9375C61.4885 91.9375 64.4949 88.6361 64.4949 84.5634C64.4949 80.4911 61.4885 77.1895 57.7796 77.1895C54.0709 77.1895 51.0642 80.4911 51.0642 84.5634C51.0642 88.6361 54.0709 91.9375 57.7796 91.9375Z" fill="#1F2D49"/>
<path d="M123.646 14.3745H54.1738C52.9384 14.3745 51.9368 15.4743 51.9368 16.8309V63.323C51.9368 64.6796 52.9384 65.7794 54.1738 65.7794H123.646C124.881 65.7794 125.883 64.6796 125.883 63.323V16.8309C125.883 15.4743 124.881 14.3745 123.646 14.3745Z" fill="#FEBB94"/>
<path d="M99.9924 76.156H103.707" stroke="#D4DCF4" stroke-width="12" stroke-miterlimit="10" stroke-linecap="round"/>
<path d="M111.882 76.156H146.47" stroke="#5661AE" stroke-width="12" stroke-miterlimit="10" stroke-linecap="round"/>
<path d="M99.9924 85.0896H103.707" stroke="#D4DCF4" stroke-width="12" stroke-miterlimit="10" stroke-linecap="round"/>
<path d="M111.882 85.0896H127.986" stroke="#5661AE" stroke-width="12" stroke-miterlimit="10" stroke-linecap="round"/>
<path d="M99.9924 94.1794H103.707" stroke="#D4DCF4" stroke-width="12" stroke-miterlimit="10" stroke-linecap="round"/>
<path d="M111.882 94.1794H139.576" stroke="#5661AE" stroke-width="12" stroke-miterlimit="10" stroke-linecap="round"/>
<path d="M56.8542 41.9535C56.8542 41.9535 62.9763 40.5376 64.918 43.8069C66.8597 47.0761 68.8015 53.2177 73.2029 52.4212C77.6041 51.625 79.7283 35.5616 84.1295 35.7036C88.5307 35.8459 87.8307 46.3656 92.6204 46.5076C97.41 46.6498 96.0751 40.6285 99.2729 40.7931C103.152 40.9926 102.717 53.4729 107.766 53.6149C112.814 53.7571 112.297 37.1261 119.934 37.4104" stroke="white" stroke-width="6.35676" stroke-miterlimit="10" stroke-linecap="round"/>
<path d="M58.8064 22.1562H71.029" stroke="white" stroke-width="10.0826" stroke-miterlimit="10" stroke-linecap="round"/>
<path opacity="0.4" d="M58.8064 28.4197H84.0652" stroke="white" stroke-width="10.0826" stroke-miterlimit="10" stroke-linecap="round"/>
<path opacity="0.4" d="M156.897 48.8267C161.285 48.8267 164.843 44.9203 164.843 40.1013C164.843 35.2827 161.285 31.3762 156.897 31.3762C152.508 31.3762 148.951 35.2827 148.951 40.1013C148.951 44.9203 152.508 48.8267 156.897 48.8267Z" fill="white"/>
<path d="M154.438 37.6991V43.237C154.438 43.3905 154.475 43.5416 154.544 43.6748C154.614 43.8083 154.713 43.9197 154.833 43.9978C154.953 44.0762 155.09 44.1186 155.23 44.1213C155.37 44.1241 155.508 44.0868 155.631 44.0129L160.241 41.2441C160.368 41.1679 160.473 41.0558 160.547 40.9193C160.621 40.7828 160.66 40.6269 160.66 40.4682C160.66 40.3093 160.621 40.1537 160.547 40.0172C160.473 39.8806 160.368 39.7683 160.241 39.692L155.631 36.9232C155.508 36.8497 155.37 36.8121 155.23 36.8148C155.09 36.8176 154.953 36.8602 154.833 36.9384C154.713 37.0168 154.614 37.1279 154.544 37.2614C154.475 37.3949 154.438 37.5456 154.438 37.6991Z" fill="white"/>
<path d="M51.2352 0.630859H185.594C186.584 0.630859 187.533 1.06256 188.233 1.8312C188.933 2.59954 189.326 3.64185 189.326 4.72867V10.9017H47.5034V4.72867C47.5034 3.64185 47.8966 2.59954 48.5965 1.8312C49.2963 1.06256 50.2455 0.630859 51.2352 0.630859Z" fill="#5CA4E6"/>
<path d="M269.977 144.407H230.365V149.324H269.977V144.407Z" fill="#96BAFD"/>
<path d="M222.106 149.324L247.902 251.011H242.648L212.831 149.324H222.106Z" fill="#E7EFFF"/>
<path d="M222.106 149.324L224 156.79L214.116 153.708L212.831 149.324H222.106Z" fill="#5CA4E6"/>
<path d="M255.506 61.8362C266.253 61.8362 274.965 52.2695 274.965 40.4683C274.965 28.6668 266.253 19.1001 255.506 19.1001C244.757 19.1001 236.045 28.6668 236.045 40.4683C236.045 52.2695 244.757 61.8362 255.506 61.8362Z" fill="#FEBB94"/>
<path d="M262.44 39.9487C262.44 38.5667 262.098 37.2104 261.45 36.0255C260.802 34.8406 259.873 33.8716 258.762 33.2222C257.651 32.5725 256.399 32.2671 255.142 32.3382C253.885 32.4094 252.669 32.8544 251.627 33.6261C250.582 34.3977 249.75 35.4664 249.215 36.7182C248.68 37.97 248.468 39.3574 248.597 40.7324C248.727 42.1072 249.193 43.4174 249.948 44.5227C250.704 45.6283 251.721 46.4874 252.887 47.0081V49.5087H258.114V47.0081C259.393 46.4369 260.488 45.4603 261.257 44.2027C262.029 42.9454 262.44 41.4642 262.44 39.9487Z" stroke="white" stroke-width="3.71807" stroke-linecap="round" stroke-linejoin="round"/>
<path d="M252.887 49.5088H258.133V50.7352C258.133 51.2547 257.946 51.753 257.61 52.1205C257.276 52.488 256.821 52.6945 256.35 52.6945H254.671C254.197 52.6945 253.744 52.488 253.408 52.1205C253.074 51.753 252.887 51.2547 252.887 50.7352V49.5088Z" stroke="white" stroke-width="3.71807" stroke-linecap="round" stroke-linejoin="round"/>
<path d="M254.329 49.5088V40.7607C254.329 40.5512 254.252 40.3505 254.117 40.2025C253.981 40.0544 253.8 39.9712 253.609 39.9712H253.587C253.397 39.9712 253.212 40.0544 253.08 40.2025C252.945 40.3505 252.868 40.5512 252.868 40.7607C252.868 40.8643 252.887 40.9669 252.923 41.0629C252.959 41.1585 253.011 41.2454 253.08 41.319C253.146 41.3922 253.226 41.4504 253.312 41.49C253.4 41.5297 253.494 41.55 253.587 41.55H257.414C257.508 41.55 257.601 41.5297 257.69 41.49C257.775 41.4504 257.855 41.3922 257.921 41.319C257.99 41.2454 258.042 41.1585 258.078 41.0629C258.114 40.9669 258.133 40.8643 258.133 40.7607C258.133 40.5512 258.056 40.3505 257.921 40.2025C257.786 40.0544 257.604 39.9712 257.414 39.9712H257.35C257.16 39.9712 256.978 40.0544 256.843 40.2025C256.708 40.3505 256.631 40.5512 256.631 40.7607V49.5088" stroke="white" stroke-width="3.71807" stroke-linecap="round" stroke-linejoin="round"/>
<path d="M255.509 28.2417V30.1974" stroke="white" stroke-width="3.71807" stroke-linecap="round" stroke-linejoin="round"/>
<path d="M249.088 30.1257L249.978 31.8195" stroke="white" stroke-width="3.71807" stroke-linecap="round" stroke-linejoin="round"/>
<path d="M244.387 35.2822L245.928 36.2601" stroke="white" stroke-width="3.71807" stroke-linecap="round" stroke-linejoin="round"/>
<path d="M266.622 35.2988L265.081 36.2767" stroke="white" stroke-width="3.71807" stroke-linecap="round" stroke-linejoin="round"/>
<path d="M261.927 30.1353L261.036 31.8287" stroke="white" stroke-width="3.71807" stroke-linecap="round" stroke-linejoin="round"/>
<path d="M41.6515 14.3745H27.2142C26.2063 14.3745 25.3894 15.2718 25.3894 16.3786V32.2316C25.3894 33.3384 26.2063 34.2357 27.2142 34.2357H41.6515C42.6595 34.2357 43.4763 33.3384 43.4763 32.2316V16.3786C43.4763 15.2718 42.6595 14.3745 41.6515 14.3745Z" fill="#1C85E8"/>
<path d="M41.6515 38.8962H27.2142C26.2063 38.8962 25.3894 39.7935 25.3894 40.9V56.7533C25.3894 57.8601 26.2063 58.7571 27.2142 58.7571H41.6515C42.6595 58.7571 43.4763 57.8601 43.4763 56.7533V40.9C43.4763 39.7935 42.6595 38.8962 41.6515 38.8962Z" fill="#1C85E8"/>
<path d="M40.3185 46.1496C40.3091 45.611 40.2159 45.0779 40.0436 44.5733C39.8912 44.1416 39.6585 43.7495 39.3605 43.422C39.0622 43.0947 38.7051 42.8392 38.312 42.6718C37.8524 42.4829 37.3669 42.3806 36.8764 42.37C36.2429 42.337 36.0419 42.3291 34.4352 42.3291C32.8284 42.3291 32.6272 42.337 31.9961 42.3672C31.5054 42.3778 31.0201 42.4799 30.5606 42.6694C30.1674 42.8365 29.8104 43.092 29.5121 43.4195C29.2141 43.7468 28.9814 44.1392 28.8289 44.5708C28.6566 45.0752 28.5637 45.6083 28.5541 46.1472C28.524 46.8429 28.5168 47.0636 28.5168 48.8279C28.5168 50.5922 28.524 50.8129 28.5516 51.5059C28.5612 52.0448 28.6541 52.5779 28.8267 53.0825C28.9792 53.5142 29.2116 53.9063 29.5099 54.2338C29.8079 54.5611 30.1649 54.8166 30.5584 54.9837C31.0177 55.1729 31.5032 55.2752 31.9939 55.2858C32.625 55.3164 32.8262 55.324 34.433 55.324C36.0394 55.324 36.2407 55.3164 36.8718 55.2858C37.3625 55.2752 37.848 55.1732 38.3073 54.9837C38.7007 54.8169 39.0577 54.5614 39.356 54.2341C39.6543 53.9066 39.8868 53.5142 40.0389 53.0825C40.2113 52.5779 40.3042 52.0448 40.3141 51.5059C40.3417 50.8129 40.3488 50.5922 40.3488 48.8279C40.3488 47.0636 40.3463 46.8429 40.3185 46.1496ZM39.2529 51.4553C39.2491 51.867 39.1801 52.2751 39.0495 52.6611C38.9508 52.9415 38.8 53.1957 38.6064 53.4083C38.4129 53.6208 38.181 53.7864 37.926 53.8948C37.5742 54.0383 37.2029 54.1136 36.8279 54.1182C36.2038 54.1488 36.0166 54.1563 34.4374 54.1563C32.8585 54.1563 32.6691 54.1488 32.0471 54.1182C31.6719 54.1139 31.3005 54.0386 30.949 53.8948C30.6921 53.7912 30.4597 53.6256 30.2694 53.4098C30.0734 53.2003 29.9226 52.9454 29.8278 52.6635C29.6971 52.2776 29.6284 51.8695 29.6243 51.4578C29.5965 50.7724 29.5896 50.5668 29.5896 48.833C29.5896 47.099 29.5965 46.891 29.6243 46.208C29.6282 45.7963 29.6968 45.3882 29.8278 45.0022C29.9221 44.7198 30.0737 44.4643 30.2716 44.256C30.4624 44.0408 30.6946 43.8752 30.9512 43.771C31.3027 43.6278 31.6744 43.5521 32.0493 43.5476C32.6735 43.5173 32.861 43.5098 34.4399 43.5098C36.021 43.5098 36.2082 43.5173 36.8301 43.5476C37.2051 43.5518 37.5767 43.6275 37.9282 43.771C38.1852 43.8746 38.4173 44.0402 38.6078 44.256C38.8038 44.4655 38.9546 44.7207 39.0495 45.0022C39.1801 45.3885 39.2488 45.7963 39.2529 46.208C39.2808 46.8934 39.2877 47.099 39.2877 48.833C39.2877 50.5668 39.2808 50.7699 39.2529 51.4553Z" fill="white"/>
<path d="M34.4352 45.4897C33.834 45.4897 33.2462 45.6856 32.7463 46.0525C32.2465 46.4191 31.8567 46.9405 31.6267 47.5505C31.3965 48.1605 31.3364 48.8316 31.4536 49.4792C31.5711 50.1267 31.8605 50.7216 32.2857 51.1884C32.7108 51.6552 33.2525 51.9731 33.8422 52.1021C34.4319 52.2307 35.0432 52.1647 35.5987 51.912C36.1542 51.6595 36.6289 51.2314 36.9628 50.6826C37.297 50.1337 37.4753 49.4883 37.4753 48.828C37.4751 47.9428 37.1547 47.0936 36.5846 46.4679C36.0144 45.8418 35.2414 45.49 34.4352 45.4897ZM34.4352 50.9935C34.0451 50.9935 33.6639 50.8663 33.3396 50.6284C33.0154 50.3904 32.7626 50.0523 32.6135 49.6566C32.464 49.2609 32.4252 48.8256 32.5013 48.4054C32.5773 47.9855 32.7651 47.5995 33.0408 47.2968C33.3168 46.994 33.668 46.7879 34.0507 46.7043C34.433 46.6208 34.8295 46.6634 35.1898 46.8275C35.5502 46.9913 35.8581 47.2689 36.0748 47.6249C36.2915 47.981 36.4073 48.3996 36.4073 48.828C36.407 49.4023 36.1994 49.953 35.8294 50.3589C35.4597 50.7652 34.9582 50.9932 34.4352 50.9935Z" fill="white"/>
<path d="M38.3053 45.3579C38.3053 45.5119 38.2636 45.6627 38.1856 45.7911C38.1076 45.9191 37.9968 46.019 37.8672 46.0781C37.7376 46.1371 37.5948 46.1525 37.4572 46.1223C37.3194 46.0923 37.1931 46.0181 37.0936 45.9091C36.9943 45.8001 36.9268 45.6612 36.8995 45.5101C36.8719 45.3588 36.886 45.2022 36.9398 45.0597C36.9935 44.9174 37.0845 44.7957 37.2011 44.71C37.318 44.6243 37.455 44.5786 37.5956 44.5786C37.7837 44.5786 37.9642 44.6607 38.0974 44.8069C38.2306 44.9531 38.3053 45.1511 38.3053 45.3579Z" fill="white"/>
<path d="M36.2253 20.8598H37.2561V18.8881C36.7574 18.8281 36.2559 18.7988 35.7544 18.8009C34.2679 18.8009 33.2497 19.8275 33.2497 21.7144V23.4506H31.6096V25.6548H33.2497V31.2006H35.2606V25.6554H36.8346L37.0844 23.4512H35.2604V21.9327C35.2606 21.2957 35.417 20.8598 36.2253 20.8598Z" fill="white"/>
</g>
<defs>
<linearGradient id="paint0_linear_259_2202" x1="114.884" y1="0.380801" x2="132.926" y2="224.657" gradientUnits="userSpaceOnUse">
<stop stop-color="white"/>
<stop offset="1" stop-color="#94B9FF"/>
</linearGradient>
<linearGradient id="paint1_linear_259_2202" x1="143.679" y1="144.395" x2="143.703" y2="154.943" gradientUnits="userSpaceOnUse">
<stop stop-color="white"/>
<stop offset="1" stop-color="#94B9FF"/>
</linearGradient>
<linearGradient id="paint2_linear_259_2202" x1="74.7685" y1="122.518" x2="93.225" y2="253.695" gradientUnits="userSpaceOnUse">
<stop stop-color="white"/>
<stop offset="1" stop-color="#94B9FF"/>
</linearGradient>
</defs>
</svg>
